<svg xmlns="http://www.w3.org/2000/svg" width="1200" height="600" viewBox="0 0 1200 600"><rect width="100%" height="100%" fill="#0f172a"/><path fill="#38bdf8" d="M268.795 278.16v35.55h-7.1v-14.77h-14.5v14.77h-7.13v-35.55h7.13v15.29h14.5v-15.29zm13.58 9.13v26.42h-7.13v-26.42zm0-11.67v5.35h-7.13v-5.35zm4.76 25.61v-.51q0-6.25 2.72-10.08t7.63-3.83q2.22 0 3.9 1 1.69 1 2.89 2.85l.56-3.37h6.15v26.3q0 5.15-3.38 7.97t-9.41 2.82q-2.01 0-4.25-.55-2.25-.55-4.15-1.5l1.32-5.32q1.63.78 3.33 1.18t3.7.4q2.93 0 4.31-1.22t1.38-3.81v-2.39q-1.18 1.49-2.76 2.27-1.59.78-3.64.78-4.86 0-7.58-3.57-2.72-3.58-2.72-9.42m7.13-.51v.51q0 3.47 1.17 5.46t3.81 1.99q1.63 0 2.77-.6 1.13-.6 1.82-1.74v-11.48q-.69-1.19-1.82-1.85-1.14-.66-2.73-.66-2.61 0-3.82 2.32-1.2 2.32-1.2 6.05m29.15-25.1v15.02q1.24-1.81 3.05-2.82 1.8-1.01 4-1.01 4.13 0 6.48 2.74 2.36 2.75 2.36 8.49v15.67h-7.13v-15.72q0-3.08-1.09-4.36-1.08-1.28-3.23-1.28-1.47 0-2.59.52-1.12.53-1.85 1.48v19.36h-7.13v-38.09zm41.43 2.54v30.08h15.82v5.47h-22.95v-35.55zm31.03 36.06q-5.72 0-9.13-3.66-3.42-3.66-3.42-9.3v-.98q0-5.88 3.23-9.69 3.24-3.81 8.68-3.78 5.35 0 8.3 3.22 2.96 3.22 2.96 8.71v3.89h-15.77l-.05.14q.19 2.61 1.74 4.3 1.55 1.68 4.21 1.68 2.37 0 3.93-.47 1.57-.48 3.42-1.5l1.93 4.39q-1.61 1.32-4.22 2.19-2.61.86-5.81.86m-.64-21.92q-1.98 0-3.12 1.51-1.15 1.52-1.42 3.98l.07.12h8.74v-.63q0-2.27-1.06-3.63-1.06-1.35-3.21-1.35m20.14-5.01 4.45 16.58.46 2.44h.15l.49-2.44 4.34-16.58h7.45l-8.99 26.42h-6.81l-8.98-26.42zm31.77 26.93q-5.72 0-9.13-3.66-3.42-3.66-3.42-9.3v-.98q0-5.88 3.23-9.69 3.24-3.81 8.68-3.78 5.35 0 8.3 3.22 2.96 3.22 2.96 8.71v3.89h-15.77l-.05.14q.19 2.61 1.74 4.3 1.55 1.68 4.21 1.68 2.37 0 3.93-.47 1.57-.48 3.42-1.5l1.93 4.39q-1.61 1.32-4.22 2.19-2.62.86-5.81.86m-.64-21.92q-1.98 0-3.12 1.51-1.15 1.52-1.42 3.98l.07.12h8.74v-.63q0-2.27-1.06-3.63-1.06-1.35-3.21-1.35m22.9-16.68v38.09h-7.13v-38.09zm40.38 38.09-2.41-7.67h-12.48l-2.42 7.67h-7.2l12.23-35.55h7.3l12.19 35.55zm-8.71-27.22-4.42 13.96h8.96l-4.4-13.96zm33.3.61-.76 6.32-2.61-.07q-1.59 0-2.61.66-1.03.66-1.57 1.85v17.85h-7.1v-26.42h6.62l.31 3.91q.93-2.07 2.41-3.23 1.47-1.16 3.4-1.16.54 0 .99.08.45.09.92.21m13.94 21.65q1.9 0 3.05-1.11t1.15-2.96h6.47l.07.14q.1 4.01-3.01 6.7-3.12 2.7-7.73 2.7-5.91 0-9.11-3.73-3.2-3.74-3.2-9.6v-.73q0-5.83 3.19-9.59t9.09-3.76q4.89 0 7.88 2.78t2.89 7.32l-.05.15h-6.49q0-2.05-1.13-3.41-1.12-1.35-3.1-1.35-2.83 0-3.99 2.2-1.16 2.19-1.16 5.66v.73q0 3.54 1.16 5.7t4.02 2.16m21.75-33.13v15.02q1.25-1.81 3.05-2.82 1.81-1.01 4.01-1.01 4.12 0 6.48 2.74 2.35 2.75 2.35 8.49v15.67h-7.12v-15.72q0-3.08-1.09-4.36t-3.24-1.28q-1.46 0-2.58.52-1.13.53-1.86 1.48v19.36h-7.13v-38.09zm28.76 11.67v26.42h-7.13v-26.42zm0-11.67v5.35h-7.13v-5.35zm7.2 5.2h7.13v6.47h4.45v5.01h-4.45v13.45q0 1.54.64 2.2.63.66 1.71.66.56 0 .96-.06t.94-.21l.61 5.15q-1.07.37-2.1.55-1.02.18-2.22.18-3.69 0-5.68-2.02-1.99-2.03-1.99-6.42V292.3h-3.85v-5.01h3.85zm27.81 33.4q-5.71 0-9.13-3.66t-3.42-9.3v-.98q0-5.88 3.24-9.69 3.23-3.81 8.68-3.78 5.34 0 8.3 3.22 2.95 3.22 2.95 8.71v3.89h-15.77l-.05.14q.2 2.61 1.75 4.3 1.55 1.68 4.21 1.68 2.37 0 3.93-.47 1.56-.48 3.42-1.5l1.93 4.39q-1.62 1.32-4.23 2.19-2.61.86-5.81.86m-.63-21.92q-1.98 0-3.13 1.51-1.15 1.52-1.41 3.98l.07.12h8.74v-.63q0-2.27-1.06-3.63-1.07-1.35-3.21-1.35m26.49 16.45q1.9 0 3.05-1.11 1.14-1.11 1.14-2.96h6.47l.08.14q.1 4.01-3.02 6.7-3.11 2.7-7.72 2.7-5.91 0-9.11-3.73-3.2-3.74-3.2-9.6v-.73q0-5.83 3.19-9.59 3.18-3.76 9.09-3.76 4.88 0 7.87 2.78 3 2.78 2.9 7.32l-.05.15h-6.5q0-2.05-1.12-3.41-1.12-1.35-3.1-1.35-2.83 0-3.99 2.2-1.16 2.19-1.16 5.66v.73q0 3.54 1.16 5.7t4.02 2.16m16.13-27.93h7.13v6.47h4.45v5.01h-4.45v13.45q0 1.54.64 2.2.63.66 1.71.66.56 0 .96-.06t.94-.21l.61 5.15q-1.07.37-2.1.55-1.02.18-2.22.18-3.69 0-5.68-2.02-1.99-2.03-1.99-6.42V292.3h-3.85v-5.01h3.85zm32.89 32.89-.64-3.81q-1.22 2.08-3.1 3.2t-4.32 1.12q-4.17 0-6.53-2.67-2.35-2.67-2.35-8.31v-15.95h7.1v16q0 2.88.98 4.13.97 1.26 2.88 1.26 1.71 0 2.93-.55t2-1.62v-19.22h7.13v26.42zm26.1-26.61-.76 6.32-2.61-.07q-1.59 0-2.61.66-1.03.66-1.57 1.85v17.85h-7.1v-26.42h6.62l.31 3.91q.93-2.07 2.41-3.23 1.47-1.16 3.4-1.16.54 0 .99.08.45.09.92.21m14.55 27.12q-5.71 0-9.13-3.66t-3.42-9.3v-.98q0-5.88 3.23-9.69 3.24-3.81 8.68-3.78 5.35 0 8.3 3.22 2.96 3.22 2.96 8.71v3.89h-15.77l-.05.14q.19 2.61 1.74 4.3 1.55 1.68 4.22 1.68 2.36 0 3.93-.47 1.56-.48 3.41-1.5l1.93 4.39q-1.61 1.32-4.22 2.19-2.61.86-5.81.86m-.64-21.92q-1.97 0-3.12 1.51-1.15 1.52-1.42 3.98l.08.12h8.74v-.63q0-2.27-1.07-3.63-1.06-1.35-3.21-1.35m40.65 21.41h-12.2v-35.55h12.2q6.52 0 10.75 4.17 4.22 4.16 4.22 10.68v5.88q0 6.54-4.22 10.68-4.23 4.14-10.75 4.14m-.36-30.05h-4.72v24.58h4.72q3.83 0 6-2.59 2.18-2.58 2.18-6.76v-5.93q0-4.13-2.18-6.72-2.17-2.58-6-2.58m27.83 3.63v26.42h-7.13v-26.42zm0-11.67v5.35h-7.13v-5.35zm28.49 38.09h-7.13q-.39-.9-.67-1.9-.28-1.01-.4-2.06-1.1 1.93-2.9 3.2-1.79 1.27-4.28 1.27-4.15 0-6.4-2.13-2.24-2.14-2.24-5.83 0-3.88 2.99-6.01 2.99-2.14 8.73-2.14h3.97v-2.1q0-1.9-1-2.95t-2.95-1.05q-1.73 0-2.67.84t-.94 2.33l-6.89-.02-.02-.15q-.17-3.35 2.9-5.78 3.08-2.42 8.08-2.42 4.74 0 7.69 2.4 2.96 2.41 2.96 6.85v10.91q0 1.86.28 3.49.28 1.64.89 3.25m-13.65-4.76q1.88 0 3.35-.93 1.46-.93 1.97-2.15v-3.73h-3.97q-2.28 0-3.45 1.13-1.17 1.14-1.17 2.75 0 1.32.88 2.12.88.81 2.39.81m16.77-7.72v-.51q0-6.25 2.73-10.08 2.72-3.83 7.63-3.83 2.22 0 3.9 1 1.69 1 2.88 2.85l.57-3.37h6.15v26.3q0 5.15-3.38 7.97-3.39 2.82-9.42 2.82-2 0-4.24-.55-2.25-.55-4.15-1.5l1.31-5.32q1.64.78 3.34 1.18 1.69.4 3.7.4 2.93 0 4.3-1.22 1.38-1.22 1.38-3.81v-2.39q-1.17 1.49-2.75 2.27-1.59.78-3.64.78-4.86 0-7.58-3.57-2.73-3.58-2.73-9.42m7.13-.51v.51q0 3.47 1.18 5.46 1.17 1.99 3.8 1.99 1.64 0 2.78-.6 1.13-.6 1.81-1.74v-11.48q-.68-1.19-1.81-1.85-1.14-.66-2.73-.66-2.61 0-3.82 2.32t-1.21 6.05m36.84-13.62-.75 6.32-2.61-.07q-1.59 0-2.62.66-1.02.66-1.56 1.85v17.85h-7.1v-26.42h6.61l.32 3.91q.93-2.07 2.4-3.23 1.48-1.16 3.41-1.16.54 0 .99.08.45.09.91.21m25.49 26.61h-7.13q-.39-.9-.67-1.9-.28-1.01-.4-2.06-1.1 1.93-2.89 3.2-1.8 1.27-4.29 1.27-4.15 0-6.39-2.13-2.25-2.14-2.25-5.83 0-3.88 2.99-6.01 2.99-2.14 8.73-2.14h3.98v-2.1q0-1.9-1-2.95t-2.96-1.05q-1.73 0-2.67.84t-.94 2.33l-6.89-.02-.02-.15q-.17-3.35 2.91-5.78 3.07-2.42 8.08-2.42 4.73 0 7.69 2.4 2.95 2.41 2.95 6.85v10.91q0 1.86.28 3.49.28 1.64.89 3.25m-13.64-4.76q1.88 0 3.34-.93 1.47-.93 1.98-2.15v-3.73h-3.98q-2.27 0-3.44 1.13-1.18 1.14-1.18 2.75 0 1.32.88 2.12.88.81 2.4.81m17.87-21.66h6.61l.3 3.5q1.27-1.91 3.18-2.95 1.92-1.03 4.43-1.03 2.54 0 4.35 1.12t2.73 3.39q1.22-2.12 3.18-3.32 1.95-1.19 4.59-1.19 3.9 0 6.16 2.69 2.26 2.7 2.26 8.22v15.99h-7.13v-16.02q0-3-.98-4.17-.97-1.17-2.9-1.17-1.51 0-2.63.67-1.11.67-1.77 1.87 0 .46.03.79.02.33.02.67v17.36h-7.1v-16.02q0-2.93-.98-4.13-.97-1.21-2.93-1.21-1.44 0-2.52.55-1.09.55-1.8 1.55v19.26h-7.1z"/></svg>