<svg xmlns="http://www.w3.org/2000/svg" width="1600" height="900" viewBox="0 0 1600 900"><rect width="100%" height="100%" fill="#1e1e1e"/><path fill="#4ade80" d="M332.02 465.035h-12.94v-37.68h12.94q6.91 0 11.39 4.41 4.48 4.42 4.48 11.32v6.24q0 6.94-4.48 11.32-4.48 4.39-11.39 4.39m-.39-31.86h-4.99v26.06h4.99q4.07 0 6.37-2.74t2.3-7.17v-6.29q0-4.37-2.3-7.11-2.3-2.75-6.37-2.75m33.96 32.4q-6.06 0-9.68-3.88t-3.62-9.86v-1.03q0-6.24 3.42-10.28 3.43-4.03 9.2-4.01 5.67 0 8.8 3.42 3.13 3.41 3.13 9.24v4.11h-16.71l-.05.16q.2 2.77 1.85 4.55 1.64 1.79 4.46 1.79 2.51 0 4.17-.51 1.65-.5 3.62-1.59l2.04 4.66q-1.7 1.4-4.47 2.31-2.77.92-6.16.92m-.68-23.24q-2.09 0-3.31 1.61-1.21 1.6-1.5 4.22l.08.13h9.26v-.68q0-2.4-1.12-3.84-1.13-1.44-3.41-1.44m17.76-12.16h7.55v6.86h4.71v5.3h-4.71v14.26q0 1.63.68 2.33.67.7 1.81.7.59 0 1.02-.06.43-.07 1-.22l.64 5.46q-1.13.39-2.22.58t-2.36.19q-3.9 0-6.01-2.14-2.11-2.15-2.11-6.81v-14.29h-4.09v-5.3h4.09zm41.07 34.86h-7.56q-.41-.96-.71-2.02t-.43-2.17q-1.16 2.04-3.06 3.39-1.91 1.34-4.55 1.34-4.4 0-6.78-2.26-2.38-2.27-2.38-6.17 0-4.12 3.17-6.38 3.17-2.27 9.25-2.27h4.22v-2.22q0-2.02-1.06-3.13-1.06-1.12-3.13-1.12-1.84 0-2.83.9-1 .89-1 2.47l-7.3-.03-.02-.15q-.18-3.55 3.08-6.12 3.26-2.58 8.56-2.58 5.02 0 8.15 2.55t3.13 7.26v11.57q0 1.96.3 3.7.3 1.73.95 3.44m-14.47-5.05q1.99 0 3.55-.98 1.55-.98 2.09-2.28v-3.96h-4.22q-2.4 0-3.64 1.21-1.25 1.2-1.25 2.91 0 1.4.93 2.25.94.85 2.54.85m26.89-22.95v28h-7.56v-28zm0-12.37v5.67h-7.56v-5.67zm14.15 0v40.37h-7.55v-40.37zm18.61 40.91q-6.05 0-9.68-3.88-3.62-3.88-3.62-9.86v-1.03q0-6.24 3.43-10.28 3.43-4.03 9.2-4.01 5.67 0 8.8 3.42 3.13 3.41 3.13 9.24v4.11h-16.72l-.05.16q.21 2.77 1.85 4.55 1.64 1.79 4.46 1.79 2.51 0 4.17-.51 1.66-.5 3.62-1.59l2.05 4.66q-1.71 1.4-4.48 2.31-2.77.92-6.16.92m-.67-23.24q-2.1 0-3.31 1.61-1.22 1.6-1.5 4.22l.07.13h9.27v-.68q0-2.4-1.13-3.84-1.12-1.44-3.4-1.44m15.16 9.48v-.55q0-6.62 2.86-10.69 2.86-4.06 8.06-4.06 2.1 0 3.78.91 1.69.9 2.95 2.59v-15.35h7.59v40.37h-6.5l-.62-3.42q-1.32 1.94-3.12 2.95t-4.13 1.01q-5.15 0-8.01-3.77-2.86-3.78-2.86-9.99m7.53-.55v.55q0 3.67 1.25 5.78 1.24 2.11 4.03 2.11 1.63 0 2.85-.66t1.99-1.93v-11.93q-.77-1.32-1.98-2.06-1.2-.73-2.8-.73-2.77 0-4.05 2.45-1.29 2.46-1.29 6.42m50.31 13.77h-12.94v-37.68h12.94q6.91 0 11.39 4.41 4.48 4.42 4.48 11.32v6.24q0 6.94-4.48 11.32-4.48 4.39-11.39 4.39m-.38-31.86h-5v26.06h5q4.06 0 6.36-2.74t2.3-7.17v-6.29q0-4.37-2.3-7.11-2.3-2.75-6.36-2.75m45.54 31.86h-7.55q-.42-.96-.72-2.02-.29-1.06-.42-2.17-1.17 2.04-3.07 3.39-1.9 1.34-4.54 1.34-4.4 0-6.78-2.26-2.38-2.27-2.38-6.17 0-4.12 3.17-6.38 3.17-2.27 9.25-2.27h4.22v-2.22q0-2.02-1.06-3.13-1.06-1.12-3.14-1.12-1.83 0-2.83.9-1 .89-1 2.47l-7.29-.03-.03-.15q-.18-3.55 3.08-6.12 3.26-2.58 8.57-2.58 5.02 0 8.15 2.55t3.13 7.26v11.57q0 1.96.3 3.7.29 1.73.94 3.44m-14.46-5.05q1.99 0 3.54-.98t2.1-2.28v-3.96h-4.22q-2.41 0-3.65 1.21-1.24 1.2-1.24 2.91 0 1.4.93 2.25t2.54.85m20.36-29.81h7.56v6.86h4.71v5.3h-4.71v14.26q0 1.63.67 2.33t1.81.7q.6 0 1.03-.06.42-.07.99-.22l.65 5.46q-1.14.39-2.23.58-1.08.19-2.35.19-3.91 0-6.02-2.14-2.11-2.15-2.11-6.81v-14.29h-4.09v-5.3h4.09zm41.07 34.86h-7.55q-.42-.96-.72-2.02-.29-1.06-.42-2.17-1.17 2.04-3.07 3.39-1.9 1.34-4.54 1.34-4.4 0-6.78-2.26-2.38-2.27-2.38-6.17 0-4.12 3.17-6.38 3.17-2.27 9.25-2.27h4.22v-2.22q0-2.02-1.06-3.13-1.06-1.12-3.13-1.12-1.84 0-2.84.9-1 .89-1 2.47l-7.29-.03-.03-.15q-.18-3.55 3.08-6.12 3.26-2.58 8.57-2.58 5.02 0 8.15 2.55t3.13 7.26v11.57q0 1.96.3 3.7.3 1.73.94 3.44m-14.46-5.05q1.99 0 3.54-.98t2.1-2.28v-3.96h-4.22q-2.41 0-3.65 1.21-1.24 1.2-1.24 2.91 0 1.4.93 2.25t2.54.85m56.1-16.43v5.82h-15.78v15.66h-7.56v-37.68h25.98v5.82h-18.42v10.38zm14.57-18.89v40.37h-7.56v-40.37zm5.05 26.65v-.54q0-6.26 3.49-10.26t9.68-4q6.21 0 9.73 3.99 3.52 3.98 3.52 10.27v.54q0 6.32-3.51 10.29-3.5 3.97-9.69 3.97-6.21 0-9.72-3.97-3.5-3.97-3.5-10.29m7.53-.54v.54q0 3.83 1.34 6.15 1.35 2.32 4.35 2.32 2.93 0 4.28-2.33 1.36-2.33 1.36-6.14v-.54q0-3.73-1.37-6.08-1.37-2.36-4.32-2.36-2.92 0-4.28 2.37t-1.36 6.07m42.62-13.74 5.28 17.98h.16l3.64-17.98h7.1l-7.12 28h-6.32l-5.2-16.67h-.15l-5.2 16.67h-6.29l-7.12-28h7.09l3.7 17.93h.16l5.22-17.93zm54.09 18.17q0-2.18-1.54-3.5t-5.4-2.48q-6.73-1.94-10.17-4.61-3.44-2.66-3.44-7.3 0-4.63 3.95-7.57 3.94-2.93 10.08-2.93 6.21 0 10.11 3.3 3.91 3.3 3.78 8.14l-.05.15h-7.32q0-2.61-1.75-4.23t-4.9-1.62q-3.03 0-4.69 1.35-1.65 1.34-1.65 3.44 0 1.91 1.77 3.14t6.12 2.6q6.24 1.74 9.45 4.59 3.2 2.84 3.2 7.47 0 4.84-3.81 7.64-3.82 2.79-10.08 2.79-6.16 0-10.74-3.17t-4.45-8.89l.05-.15h7.35q0 3.36 2.06 4.93 2.05 1.56 5.73 1.56 3.08 0 4.71-1.26 1.63-1.27 1.63-3.39m25.05 10.37q-6.06 0-9.68-3.88t-3.62-9.86v-1.03q0-6.24 3.43-10.28 3.42-4.03 9.2-4.01 5.66 0 8.79 3.42 3.14 3.41 3.14 9.24v4.11h-16.72l-.05.16q.2 2.77 1.85 4.55 1.64 1.79 4.46 1.79 2.51 0 4.17-.51 1.65-.5 3.62-1.59l2.04 4.66q-1.7 1.4-4.47 2.31-2.77.92-6.16.92m-.67-23.24q-2.1 0-3.32 1.61-1.21 1.6-1.5 4.22l.08.13h9.26v-.68q0-2.4-1.12-3.84-1.13-1.44-3.4-1.44m15.16 9.48v-.55q0-6.62 2.86-10.69 2.86-4.06 8.06-4.06 2.33 0 4.09 1.02 1.76 1.03 3.03 2.94l.7-3.44h6.42v38.77h-7.56v-13.38q-1.24 1.55-2.91 2.35t-3.82.8q-5.15 0-8.01-3.77-2.86-3.78-2.86-9.99m7.53-.55v.55q0 3.67 1.24 5.82 1.25 2.15 4.04 2.15 1.66 0 2.85-.62 1.19-.63 1.94-1.82v-12.42q-.75-1.24-1.93-1.91-1.18-.68-2.81-.68-2.77 0-4.05 2.49-1.28 2.48-1.28 6.44m41.33 13.77-.67-4.04q-1.3 2.2-3.29 3.39t-4.58 1.19q-4.43 0-6.92-2.83-2.5-2.83-2.5-8.81v-16.9h7.53v16.95q0 3.05 1.04 4.39 1.03 1.33 3.05 1.33 1.81 0 3.11-.58 1.29-.59 2.12-1.72v-20.37h7.55v28zm24.53.54q-6.05 0-9.68-3.88-3.62-3.88-3.62-9.86v-1.03q0-6.24 3.43-10.28 3.43-4.03 9.2-4.01 5.67 0 8.8 3.42 3.13 3.41 3.13 9.24v4.11h-16.72l-.05.16q.21 2.77 1.85 4.55 1.64 1.79 4.47 1.79 2.51 0 4.16-.51 1.66-.5 3.63-1.59l2.04 4.66q-1.71 1.4-4.48 2.31-2.77.92-6.16.92m-.67-23.24q-2.1 0-3.31 1.61-1.22 1.6-1.5 4.22l.07.13h9.27v-.68q0-2.4-1.13-3.84-1.12-1.44-3.4-1.44m16.2-5.3h7.04l.34 4.01q1.39-2.15 3.44-3.34 2.04-1.19 4.58-1.19 4.24 0 6.62 2.67 2.38 2.66 2.38 8.36v17.49h-7.58v-17.47q0-2.82-1.14-4-1.14-1.17-3.44-1.17-1.5 0-2.69.6-1.19.61-1.99 1.73v20.31h-7.56zm41.8 22.75q2.01 0 3.23-1.18t1.22-3.15h6.85l.08.16q.11 4.24-3.19 7.1t-8.19 2.86q-6.27 0-9.66-3.96t-3.39-10.17v-.77q0-6.19 3.38-10.17 3.38-3.99 9.64-3.99 5.17 0 8.35 2.95 3.17 2.95 3.06 7.77l-.05.15h-6.88q0-2.17-1.19-3.61t-3.29-1.44q-3 0-4.23 2.33t-1.23 6.01v.77q0 3.76 1.23 6.05t4.26 2.29m28.07 5.79q-6.05 0-9.68-3.88-3.62-3.88-3.62-9.86v-1.03q0-6.24 3.43-10.28 3.43-4.03 9.2-4.01 5.67 0 8.8 3.42 3.13 3.41 3.13 9.24v4.11h-16.72l-.05.16q.21 2.77 1.85 4.55 1.65 1.79 4.47 1.79 2.51 0 4.16-.51 1.66-.5 3.63-1.59l2.04 4.66q-1.71 1.4-4.48 2.31-2.77.92-6.16.92m-.67-23.24q-2.1 0-3.31 1.61-1.22 1.6-1.5 4.22l.08.13h9.26v-.68q0-2.4-1.13-3.84-1.12-1.44-3.4-1.44m29.84 7.95v-.57q0-10.14 3.93-17.22 3.94-7.08 8.91-9.18h.15l1.37 3.78q-3.39 2.54-5.69 8.18t-2.3 14.39v.67q0 8.77 2.3 14.4t5.69 8.24l-1.37 3.71h-.15q-4.97-2.1-8.91-9.17-3.93-7.06-3.93-17.23m44.3-19.15-17.98 28.1h18.42v5.8h-27.56v-3.93l17.91-27.93h-17.88v-5.82h27.09zm3.21 20.18v-.54q0-6.26 3.5-10.26 3.49-4 9.68-4 6.21 0 9.73 3.99 3.52 3.98 3.52 10.27v.54q0 6.32-3.51 10.29t-9.69 3.97q-6.21 0-9.72-3.97t-3.51-10.29m7.53-.54v.54q0 3.83 1.35 6.15t4.35 2.32q2.92 0 4.28-2.33t1.36-6.14v-.54q0-3.73-1.37-6.08-1.37-2.36-4.32-2.36-2.93 0-4.29 2.37t-1.36 6.07m22.39.54v-.54q0-6.26 3.49-10.26 3.5-4 9.68-4 6.21 0 9.73 3.99 3.52 3.98 3.52 10.27v.54q0 6.32-3.51 10.29-3.5 3.97-9.69 3.97-6.21 0-9.71-3.97-3.51-3.97-3.51-10.29m7.53-.54v.54q0 3.83 1.35 6.15 1.34 2.32 4.34 2.32 2.93 0 4.29-2.33 1.35-2.33 1.35-6.14v-.54q0-3.73-1.37-6.08-1.37-2.36-4.32-2.36-2.92 0-4.28 2.37t-1.36 6.07m23.55-13.74h7.01l.31 3.7q1.35-2.02 3.38-3.12t4.7-1.1q2.69 0 4.6 1.19 1.92 1.19 2.9 3.6 1.3-2.25 3.37-3.52t4.86-1.27q4.14 0 6.54 2.86 2.39 2.86 2.39 8.71v16.95h-7.56v-16.98q0-3.18-1.03-4.42-1.04-1.24-3.08-1.24-1.61 0-2.78.71-1.18.71-1.88 1.98 0 .49.03.84.02.35.02.71v18.4h-7.53v-16.98q0-3.1-1.03-4.38-1.04-1.28-3.11-1.28-1.53 0-2.68.58t-1.9 1.64v20.42h-7.53zm59.68-9.68h9.86l9.6 27.77h.15l9.68-27.77h9.89v37.68h-7.56v-11.23l.72-16.64-.15-.03-10.09 27.9h-5.08l-10.04-27.79-.15.02.72 16.54v11.23h-7.55zm58.02 38.22q-6.06 0-9.68-3.88-3.63-3.88-3.63-9.86v-1.03q0-6.24 3.43-10.28 3.43-4.03 9.2-4.01 5.67 0 8.8 3.42 3.13 3.41 3.13 9.24v4.11h-16.71l-.06.16q.21 2.77 1.85 4.55 1.65 1.79 4.47 1.79 2.51 0 4.17-.51 1.65-.5 3.62-1.59l2.04 4.66q-1.71 1.4-4.47 2.31-2.77.92-6.16.92m-.68-23.24q-2.09 0-3.31 1.61-1.21 1.6-1.5 4.22l.08.13h9.26v-.68q0-2.4-1.12-3.84-1.13-1.44-3.41-1.44m29.01 7.38v.57q0 9.91-4.1 17.12t-9.12 9.28h-.16l-1.39-3.71q3.34-2.53 5.66-8.2 2.33-5.67 2.33-14.44v-.67q0-8.7-2.35-14.4-2.36-5.71-5.64-8.27l1.39-3.68h.16q5.02 2.07 9.12 9.29t4.1 17.11"/></svg>